<?xml version="1.0" encoding="UTF-8" standalone="no"?>
<!DOCTYPE svg PUBLIC "-//W3C//DTD SVG 1.1//EN"
 "http://www.w3.org/Graphics/SVG/1.1/DTD/svg11.dtd">
<!-- Generated by graphviz version 3.0.0 (20220226.1711)
 -->
<!-- Pages: 1 -->
<svg width="250pt" height="167pt"
 viewBox="0.00 0.00 249.50 167.00" xmlns="http://www.w3.org/2000/svg" xmlns:xlink="http://www.w3.org/1999/xlink">
<g id="graph0" class="graph" transform="scale(1 1) rotate(0) translate(4 163)">
<polygon fill="white" stroke="transparent" points="-4,4 -4,-163 245.5,-163 245.5,4 -4,4"/>
<!-- osn -->
<g id="node1" class="node">
<title>osn</title>
<path fill="none" stroke="black" d="M232.5,-155.73C232.5,-157.53 220.4,-159 205.5,-159 190.6,-159 178.5,-157.53 178.5,-155.73 178.5,-155.73 178.5,-126.27 178.5,-126.27 178.5,-124.47 190.6,-123 205.5,-123 220.4,-123 232.5,-124.47 232.5,-126.27 232.5,-126.27 232.5,-155.73 232.5,-155.73"/>
<path fill="none" stroke="black" d="M232.5,-155.73C232.5,-153.92 220.4,-152.45 205.5,-152.45 190.6,-152.45 178.5,-153.92 178.5,-155.73"/>
<text text-anchor="middle" x="205.5" y="-137.3" font-family="Times,serif" font-size="14.00">osn</text>
</g>
<!-- client -->
<g id="node3" class="node">
<title>client</title>
<ellipse fill="none" stroke="black" cx="115.5" cy="-18" rx="30.59" ry="18"/>
<text text-anchor="middle" x="115.5" y="-14.3" font-family="Times,serif" font-size="14.00">client</text>
</g>
<!-- osn&#45;&gt;client -->
<g id="edge2" class="edge">
<title>osn&#45;&gt;client</title>
<path fill="none" stroke="black" d="M195.29,-122.79C186.76,-108.76 174,-88.64 161.5,-72 153.8,-61.76 144.66,-50.98 136.57,-41.84"/>
<polygon fill="black" stroke="black" points="139.07,-39.39 129.78,-34.29 133.86,-44.07 139.07,-39.39"/>
<text text-anchor="middle" x="206.5" y="-75.8" font-family="Times,serif" font-size="14.00">3. serve data</text>
</g>
<!-- svc -->
<g id="node2" class="node">
<title>svc</title>
<polygon fill="none" stroke="black" points="55,-159 0,-159 0,-123 55,-123 55,-159"/>
<text text-anchor="middle" x="27.5" y="-137.3" font-family="Times,serif" font-size="14.00">service</text>
</g>
<!-- svc&#45;&gt;osn -->
<g id="edge1" class="edge">
<title>svc&#45;&gt;osn</title>
<path fill="none" stroke="black" d="M55.31,-141C85.66,-141 134.42,-141 168.1,-141"/>
<polygon fill="black" stroke="black" points="168.47,-144.5 178.47,-141 168.47,-137.5 168.47,-144.5"/>
<text text-anchor="middle" x="116.75" y="-147.8" font-family="Times,serif" font-size="14.00">2. get presigned url</text>
</g>
<!-- client&#45;&gt;svc -->
<g id="edge3" class="edge">
<title>client&#45;&gt;svc</title>
<path fill="none" stroke="black" d="M103.98,-34.84C89.23,-55.13 63.47,-90.54 45.96,-114.61"/>
<polygon fill="black" stroke="black" points="42.97,-112.77 39.92,-122.92 48.63,-116.89 42.97,-112.77"/>
<text text-anchor="middle" x="117.5" y="-75.8" font-family="Times,serif" font-size="14.00">1. authenticate</text>
</g>
</g>
</svg>
