<?xml version="1.0" encoding="UTF-8" standalone="no"?>
<!DOCTYPE svg PUBLIC "-//W3C//DTD SVG 1.1//EN"
 "http://www.w3.org/Graphics/SVG/1.1/DTD/svg11.dtd">
<!-- Generated by graphviz version 3.0.0 (20220226.1711)
 -->
<!-- Pages: 1 -->
<svg width="277pt" height="167pt"
 viewBox="0.00 0.00 276.82 167.00" xmlns="http://www.w3.org/2000/svg" xmlns:xlink="http://www.w3.org/1999/xlink">
<g id="graph0" class="graph" transform="scale(1 1) rotate(0) translate(4 163)">
<polygon fill="white" stroke="transparent" points="-4,4 -4,-163 272.82,-163 272.82,4 -4,4"/>
<!-- osn -->
<g id="node1" class="node">
<title>osn</title>
<path fill="none" stroke="black" d="M248.82,-155.73C248.82,-157.53 236.72,-159 221.82,-159 206.93,-159 194.82,-157.53 194.82,-155.73 194.82,-155.73 194.82,-126.27 194.82,-126.27 194.82,-124.47 206.93,-123 221.82,-123 236.72,-123 248.82,-124.47 248.82,-126.27 248.82,-126.27 248.82,-155.73 248.82,-155.73"/>
<path fill="none" stroke="black" d="M248.82,-155.73C248.82,-153.92 236.72,-152.45 221.82,-152.45 206.93,-152.45 194.82,-153.92 194.82,-155.73"/>
<text text-anchor="middle" x="221.82" y="-137.3" font-family="Times,serif" font-size="14.00">osn</text>
</g>
<!-- client -->
<g id="node3" class="node">
<title>client</title>
<ellipse fill="none" stroke="black" cx="118.82" cy="-18" rx="30.59" ry="18"/>
<text text-anchor="middle" x="118.82" y="-14.3" font-family="Times,serif" font-size="14.00">client</text>
</g>
<!-- osn&#45;&gt;client -->
<g id="edge4" class="edge">
<title>osn&#45;&gt;client</title>
<path fill="none" stroke="black" d="M216.07,-122.8C210.62,-108.22 201.4,-87.32 188.82,-72 177.56,-58.28 162.05,-46.07 148.5,-36.84"/>
<polygon fill="black" stroke="black" points="150.22,-33.78 139.94,-31.22 146.37,-39.63 150.22,-33.78"/>
<text text-anchor="middle" x="233.82" y="-75.8" font-family="Times,serif" font-size="14.00">4. serve data</text>
</g>
<!-- svc -->
<g id="node2" class="node">
<title>svc</title>
<polygon fill="none" stroke="black" points="71.32,-159 16.32,-159 16.32,-123 71.32,-123 71.32,-159"/>
<text text-anchor="middle" x="43.82" y="-137.3" font-family="Times,serif" font-size="14.00">service</text>
</g>
<!-- svc&#45;&gt;osn -->
<g id="edge2" class="edge">
<title>svc&#45;&gt;osn</title>
<path fill="none" stroke="black" d="M71.64,-141C101.99,-141 150.74,-141 184.43,-141"/>
<polygon fill="black" stroke="black" points="184.79,-144.5 194.79,-141 184.79,-137.5 184.79,-144.5"/>
<text text-anchor="middle" x="133.07" y="-147.8" font-family="Times,serif" font-size="14.00">2. get presigned url</text>
</g>
<!-- svc&#45;&gt;client -->
<g id="edge3" class="edge">
<title>svc&#45;&gt;client</title>
<path fill="none" stroke="black" d="M22.34,-122.74C7.77,-108.86 -7.03,-88.96 3.82,-72 20.48,-45.98 53.51,-32.55 79.92,-25.74"/>
<polygon fill="black" stroke="black" points="80.73,-29.14 89.66,-23.44 79.13,-22.33 80.73,-29.14"/>
<text text-anchor="middle" x="48.32" y="-75.8" font-family="Times,serif" font-size="14.00">3. redirect to url</text>
</g>
<!-- client&#45;&gt;svc -->
<g id="edge1" class="edge">
<title>client&#45;&gt;svc</title>
<path fill="none" stroke="black" d="M115.63,-36.16C112.42,-50.51 106.54,-71.12 96.82,-87 90.42,-97.47 81.53,-107.43 72.87,-115.82"/>
<polygon fill="black" stroke="black" points="70.33,-113.4 65.38,-122.77 75.09,-118.53 70.33,-113.4"/>
<text text-anchor="middle" x="144.82" y="-75.8" font-family="Times,serif" font-size="14.00">1. authenticate</text>
</g>
</g>
</svg>
